# xmcd
#
# Track frame offsets:
#	150
#	16191
#	39088
#	57888
#	79114
#	100091
#	116833
#	137847
#	161061
#	183060
#
# Disc length: 2694 seconds
#
# Revision: 1
# Processed by: cddbd v1.5.2PL0 Copyright (c) Steve Scherf et al.
# Submitted via: audiograbber 1.83.01
#
DISCID=730a840a
DTITLE=Wes Burden - A Christmas Journey
DYEAR=1997
DGENRE=Christmas
TTITLE0=God Rest Ye Merry Gentlemen
TTITLE1=Angels We Have Heard On High
TTITLE2=Santa Claus Is Coming To Town
TTITLE3=The First Noel
TTITLE4=O Come, O Come Immanuel
TTITLE5=What Child Is This
TTITLE6=We Three Kings
TTITLE7=The Christmas Song
TTITLE8=Little Drummer Boy
TTITLE9=Silent Night
EXTD=
EXTT0=
EXTT1=
EXTT2=
EXTT3=
EXTT4=
EXTT5=
EXTT6=
EXTT7=
EXTT8=
EXTT9=
PLAYORDER=
